<?xml version="1.0" encoding="UTF-8" standalone="no"?>
<!-- Generator: Adobe Illustrator 26.3.1, SVG Export Plug-In . SVG Version: 6.00 Build 0)  -->

<svg
   version="1.1"
   id="Vrstva_1"
   x="0px"
   y="0px"
   viewBox="0 0 956.5 356.5654"
   xml:space="preserve"
   sodipodi:docname="LOGO.svg"
   width="956.5"
   height="356.5654"
   inkscape:version="1.4.2 (f4327f4, 2025-05-13)"
   xmlns:inkscape="http://www.inkscape.org/namespaces/inkscape"
   xmlns:sodipodi="http://sodipodi.sourceforge.net/DTD/sodipodi-0.dtd"
   xmlns="http://www.w3.org/2000/svg"
   xmlns:svg="http://www.w3.org/2000/svg"><defs
   id="defs23" /><sodipodi:namedview
   id="namedview23"
   pagecolor="#ffffff"
   bordercolor="#999999"
   borderopacity="1"
   inkscape:showpageshadow="2"
   inkscape:pageopacity="0"
   inkscape:pagecheckerboard="0"
   inkscape:deskcolor="#d1d1d1"
   showgrid="false"
   inkscape:zoom="0.52738381"
   inkscape:cx="354.58047"
   inkscape:cy="283.47476"
   inkscape:window-width="1920"
   inkscape:window-height="1057"
   inkscape:window-x="-8"
   inkscape:window-y="-8"
   inkscape:window-maximized="1"
   inkscape:current-layer="Vrstva_1" />
<style
   type="text/css"
   id="style1">
	.st0{stroke:#000000;stroke-miterlimit:10;}
	.st1{enable-background:new    ;}
	.st2{fill:#294899;}
</style>
<g
   id="g2"
   transform="translate(-527,-263.43459)">
	<path
   class="st0"
   d="m 1099.8,333.3 c 12.6,4.1 26.3,7.7 40.6,8.6 8.2,0.5 16.3,-0.6 24.1,-3.4 2.8,-1 5.5,-2.5 8,-4.3 16.4,-12 28.8,-27.4 38.2,-45.3 3.7,-7.1 6.7,-14.4 8.9,-22.1 0.2,-0.6 0.3,-1.3 0.5,-2 -0.4,0.1 -0.6,0 -0.7,0.1 -8.1,4.5 -16.8,4.4 -25.6,3.4 -12.2,-1.4 -24.3,-3 -36.5,-4.1 -18,-1.7 -33.3,4.9 -47.3,15.6 -2.2,1.7 -4.5,3.5 -6.8,5.1 5.1,-6.5 11.8,-11.6 17.2,-18 -2.5,1.4 -4.9,2.8 -7.4,4 -6.4,3.1 -13.1,5.2 -20.2,5.6 -15.4,0.9 -28.8,6.8 -41,15.8 -5.2,3.8 -10.2,8 -15.3,12 4.5,-7.5 10.9,-13.1 18.2,-18 -0.1,-0.2 -0.2,-0.4 -0.2,-0.6 -3.2,0.3 -6.4,0.5 -9.6,0.9 -28.5,3.5 -49.5,18.9 -65.5,41.7 -5.1,7.2 -9.1,15.1 -13.7,22.6 -4,6.6 -8.5,13 -14.4,18.1 -3,2.6 -6.4,4.8 -9.8,6.6 -16.3,8.7 -32.9,16.9 -48.3,27.2 -3.7,2.5 -7.3,5.1 -10.9,7.7 -0.8,0.5 -1.7,1.2 -2,2 -0.3,1.1 -0.4,2.5 0,3.5 0.5,1.3 1.9,1.5 3.1,1 1.2,-0.5 2.3,-1.1 3.4,-1.8 14.6,-11.1 30.6,-20.1 46.8,-28.6 4.4,-2.3 8.9,-4.5 13.4,-6.8 3.3,-1.7 6.7,-1.9 10.4,-1.4 9.8,1.5 19.1,4.9 28,9.2 20.8,9.9 42.3,13.2 64.8,7.2 0.7,-0.2 1.4,-0.4 2.1,-0.6 -3.5,-1.3 -7,-2.5 -10.4,-4 -3.3,-1.4 -6.4,-3.2 -9.6,-4.8 0.1,-0.2 0.2,-0.4 0.3,-0.6 4.2,0.8 8.4,1.6 12.6,2.5 27.2,5.7 52.7,2.3 76.4,-12.8 1.1,-0.7 2.2,-1.4 3.3,-2.4 -8.5,1.6 -16.9,1.2 -25,-1.9 1.3,0.1 2.5,0.3 3.8,0.4 13.7,1.3 26.2,-2.6 37.9,-9.3 8.4,-4.8 16.1,-10.7 23.4,-17 2.7,-2.3 5.4,-4.5 8.5,-7.1 -3.3,1.3 -6.1,2.6 -9,3.6 -9.5,3.3 -19.3,4 -29.1,2.5 -9.5,-1.5 -19,-3.3 -28.4,-5 4.1,1.2 8.3,2.6 12.5,3.8 4.3,1.1 8.6,2.2 13,3 4.4,0.7 9,1.3 13.4,1.3 4.4,0 8.8,-0.7 13.7,-1.1 -2.8,2.2 -5.3,4.2 -7.9,6.1 -6.7,4.9 -13.7,9.3 -21.4,12.6 -10,4.3 -20.3,4.8 -30.8,3 -8.3,-1.4 -16.6,-3.1 -24.7,-5.4 -5.5,-1.5 -10.6,-4.2 -15.9,-6.3 -0.4,-0.2 -0.8,-0.3 -1.3,-0.4 12.7,7.6 25.8,14.1 39.9,18.7 -15.5,-3.1 -29.6,-9.8 -43.5,-17.2 6.1,3.5 12.1,7 18.3,10.4 6.2,3.4 12.8,5.9 19.8,7.4 6.9,1.5 13.9,2.2 21,1.5 0,0.2 0.1,0.3 0.1,0.5 -2.8,1.3 -5.6,2.6 -8.4,3.8 -15.1,6.6 -31,7.9 -47.2,6.1 -15.9,-1.7 -31.2,-5.8 -45.9,-11.9 -3.7,-1.5 -7.2,-3.4 -10.8,-5.1 -0.6,-0.3 -1.2,-0.6 -1.8,-0.7 12.5,10.8 26.5,18.9 42.1,24.9 -0.7,0.2 -1.4,0.4 -2,0.5 -10.4,1.9 -20.8,1.5 -31.1,-1.2 -8.2,-2.2 -16,-5.4 -23.6,-9.1 -8.2,-3.9 -16.8,-6.8 -25.8,-7.8 -0.6,-0.1 -1.2,-0.3 -1.7,-0.4 0,-0.2 -0.1,-0.4 -0.1,-0.6 2,-0.4 4,-1.2 5.9,-1.1 6.1,0.4 12.3,0.7 18.3,1.9 6.2,1.2 12.3,3.2 18.5,4.6 -5.6,-1.9 -11.2,-4.1 -16.9,-5.6 -5.7,-1.5 -11.6,-2.2 -17.4,-3.3 0.2,-0.1 0.6,-0.3 1,-0.5 26.6,-10.2 54,-17.8 81.4,-25.3 20.8,-5.7 41.6,-11.8 62.1,-18.4 17.8,-5.8 34.7,-13.9 50.8,-23.5 0.3,-0.2 0.6,-0.4 0.7,-0.7 -3.7,2 -7.4,4 -11.1,5.9 -21.4,11.1 -44,18.8 -67.3,24.8 -26.8,6.9 -53.7,13.3 -80.5,20.3 -15.6,4 -30.6,9.7 -45.4,16 -0.7,0.3 -1.3,0.6 -2.5,1.1 0.7,-1 1,-1.5 1.4,-1.9 8.3,-8.9 14.6,-19.1 20.6,-29.6 8.7,-15.1 20,-27.9 34.7,-37.5 10.3,-6.8 21.6,-11.1 33.8,-12.7 0.3,0 0.6,0 1.2,0.1 -16.4,14 -24.5,32.7 -30.7,52.6 5.7,-12.2 12.5,-23.7 22,-33.4 0.6,-0.6 1.2,-1.2 1.9,-1.7 -6.3,9 -12.1,18.2 -16.5,28 3.9,-6.1 7.7,-12.4 12,-18.4 6.3,-8.9 13.3,-17.1 22.2,-23.6 10,-7.4 21.2,-11.9 33.7,-13.2 4.7,-0.5 9.3,-1.4 14.2,-2.1 -12.7,15.1 -23.4,31.3 -31.2,49.4 8.6,-14.7 19,-28 31.5,-39.7 -8.4,10.6 -16.6,21.3 -23.2,33.4 3.4,-4.6 6.4,-9.2 9.9,-13.4 7.1,-8.3 14.3,-16.4 21.7,-24.4 10.3,-11.1 23.4,-15.6 38.3,-15.8 9.7,-0.1 19.4,1.1 29,2.4 6.1,0.8 12.3,1.7 18.5,2.3 5.7,0.6 11.3,-0.1 17.2,-2.6 -0.6,1.5 -0.9,2.6 -1.3,3.6 -7.9,20.3 -19.6,38.1 -35.8,52.9 -3.5,3.2 -7.4,5.9 -11.3,8.6 -5.2,3.6 -11.5,4.2 -17.6,5 -11.1,1.4 -22.2,0.5 -33.2,-1.7 -6.4,-1.5 -12.5,-3 -17.7,-4.2 z"
   id="path1" />
	<path
   class="st0"
   d="m 975.7,360.7 c 11.3,-13.3 24.2,-24.9 38.2,-35.3 -10.8,4.6 -36,27.8 -38.2,35.3 z"
   id="path2" />
</g>
<g
   class="st1"
   id="g10"
   transform="translate(-527,-263.43459)">
	<path
   class="st2"
   d="M 527,564.8 V 401.1 h 33.1 v 163.7 z"
   id="path3" />
	<path
   class="st2"
   d="m 699.2,564.8 h -31.4 v -60.5 c 0,-12.8 -0.7,-21.1 -2,-24.8 -1.3,-3.8 -3.5,-6.7 -6.5,-8.8 -3,-2.1 -6.6,-3.1 -10.9,-3.1 -5.4,0 -10.3,1.5 -14.6,4.5 -4.3,3 -7.3,6.9 -8.9,11.8 -1.6,4.9 -2.4,14 -2.4,27.2 v 53.7 H 591.1 V 446.2 h 29.1 v 17.4 c 10.3,-13.4 23.4,-20.1 39.1,-20.1 6.9,0 13.2,1.2 19,3.7 5.7,2.5 10.1,5.7 13,9.5 2.9,3.9 5,8.3 6.1,13.2 1.2,4.9 1.7,11.9 1.7,21.1 v 73.8 z"
   id="path4" />
	<path
   class="st2"
   d="m 839.8,564.8 h -29.1 v -17.4 c -4.8,6.8 -10.6,11.8 -17.1,15.1 -6.5,3.3 -13.2,5 -19.9,5 -13.6,0 -25.3,-5.5 -35,-16.5 -9.7,-11 -14.6,-26.3 -14.6,-46 0,-20.1 4.7,-35.4 14.2,-45.8 9.5,-10.5 21.4,-15.7 35.8,-15.7 13.2,0 24.7,5.5 34.4,16.5 v -59 h 31.4 V 564.8 Z M 756,503 c 0,12.7 1.7,21.8 5.2,27.5 5.1,8.2 12.1,12.3 21.2,12.3 7.2,0 13.4,-3.1 18.4,-9.2 5.1,-6.1 7.6,-15.3 7.6,-27.5 0,-13.6 -2.5,-23.4 -7.4,-29.4 -4.9,-6 -11.2,-9 -18.9,-9 -7.4,0 -13.7,3 -18.7,8.9 -5,5.9 -7.4,14.6 -7.4,26.4 z"
   id="path5" />
	<path
   class="st2"
   d="M 908.2,453.5 V 564.8 H 866.4 V 453.5 Z m -20.7,-49.7 c 5.7,0 10.6,2 14.7,6 4.1,4 6.2,8.7 6.2,14.1 0,5.8 -2,10.6 -5.9,14.3 -3.9,3.7 -8.9,5.6 -15,5.6 -6.1,0 -11.1,-1.9 -15,-5.6 -3.9,-3.7 -5.9,-8.5 -5.9,-14.3 0,-5.4 2.1,-10.1 6.2,-14.1 4.1,-4 9,-6 14.7,-6 z"
   id="path6" />
	<path
   class="st2"
   d="m 1005.7,527.1 31.3,5.2 c -4,11.5 -10.4,20.2 -19,26.2 -8.7,6 -19.5,9 -32.6,9 -20.6,0 -35.9,-6.7 -45.8,-20.2 -7.8,-10.8 -11.7,-24.4 -11.7,-40.9 0,-19.7 5.1,-35 15.4,-46.2 10.3,-11.1 23.3,-16.7 39,-16.7 17.6,0 31.6,5.8 41.8,17.5 10.2,11.7 15.1,29.5 14.6,53.5 H 960 c 0.2,9.3 2.8,16.5 7.6,21.7 4.8,5.2 10.9,7.8 18.1,7.8 4.9,0 9,-1.3 12.4,-4 3.4,-2.6 5.9,-6.9 7.6,-12.9 z m 1.8,-31.7 c -0.2,-9.1 -2.6,-16 -7,-20.7 -4.5,-4.7 -9.9,-7.1 -16.3,-7.1 -6.9,0 -12.5,2.5 -17,7.5 -4.5,5 -6.7,11.8 -6.6,20.3 z"
   id="path7" />
	<path
   class="st2"
   d="M 1064.6,564.8 V 401.1 h 33.1 v 64.4 h 64.8 v -64.4 h 33.1 v 163.7 h -33.1 v -71.6 h -64.8 v 71.6 z"
   id="path8" />
	<path
   class="st2"
   d="M 1307.4,564.8 V 547 c -4.3,6.3 -10,11.3 -17,15 -7,3.7 -14.5,5.5 -22.3,5.5 -8,0 -15.1,-1.8 -21.4,-5.2 -6.3,-3.5 -10.9,-8.4 -13.7,-14.7 -2.8,-6.3 -4.2,-15.1 -4.2,-26.2 v -75 h 31.4 v 54.5 c 0,16.7 0.6,26.9 1.7,30.7 1.2,3.8 3.3,6.7 6.3,8.9 3.1,2.2 6.9,3.3 11.6,3.3 5.4,0 10.2,-1.5 14.4,-4.4 4.2,-2.9 7.1,-6.6 8.7,-10.9 1.6,-4.3 2.3,-15 2.3,-32 v -50 h 31.4 v 118.6 h -29.2 z"
   id="path9" />
	<path
   class="st2"
   d="M 1367.7,564.8 V 401.1 h 31.4 v 59 c 9.7,-11 21.1,-16.5 34.4,-16.5 14.4,0 26.4,5.2 35.8,15.7 9.5,10.5 14.2,25.5 14.2,45.1 0,20.2 -4.8,35.8 -14.5,46.8 -9.6,10.9 -21.3,16.4 -35.1,16.4 -6.8,0 -13.5,-1.7 -20,-5.1 -6.6,-3.4 -12.3,-8.4 -17,-15 v 17.4 h -29.2 z m 31.2,-61.8 c 0,12.3 1.9,21.4 5.8,27.2 5.4,8.3 12.7,12.5 21.7,12.5 6.9,0 12.8,-3 17.7,-8.9 4.9,-5.9 7.3,-15.2 7.3,-28 0,-13.5 -2.5,-23.3 -7.4,-29.3 -4.9,-6 -11.2,-9 -18.9,-9 -7.5,0 -13.8,2.9 -18.8,8.8 -4.9,5.9 -7.4,14.8 -7.4,26.7 z"
   id="path10" />
</g>
<g
   id="g23"
   transform="translate(-527,-263.43459)">
	<path
   d="m 816.8,607.6 v -5.4 h 14 V 615 c -1.4,1.3 -3.3,2.5 -5.9,3.5 -2.6,1 -5.2,1.5 -7.8,1.5 -3.4,0 -6.3,-0.7 -8.8,-2.1 -2.5,-1.4 -4.4,-3.4 -5.6,-6.1 -1.2,-2.7 -1.9,-5.5 -1.9,-8.6 0,-3.4 0.7,-6.3 2.1,-8.9 1.4,-2.6 3.5,-4.6 6.2,-6 2.1,-1.1 4.6,-1.6 7.7,-1.6 4,0 7.1,0.8 9.4,2.5 2.3,1.7 3.7,4 4.3,6.9 l -6.5,1.2 c -0.5,-1.6 -1.3,-2.8 -2.6,-3.7 -1.3,-0.9 -2.8,-1.4 -4.7,-1.4 -2.8,0 -5.1,0.9 -6.8,2.7 -1.7,1.8 -2.5,4.5 -2.5,8 0,3.8 0.8,6.7 2.5,8.6 1.7,1.9 3.9,2.9 6.7,2.9 1.4,0 2.7,-0.3 4.1,-0.8 1.4,-0.5 2.5,-1.2 3.5,-1.9 v -4.1 z"
   id="path11" />
	<path
   d="m 865.8,619.5 h -7.1 l -2.8,-7.3 H 843 l -2.7,7.3 h -6.9 l 12.5,-32.2 h 6.9 z m -12,-12.8 -4.4,-11.9 -4.3,11.9 z"
   id="path12" />
	<path
   d="m 869.2,619.5 v -32.2 h 9.7 l 5.8,22 5.8,-22 h 9.7 v 32.2 h -6 v -25.3 l -6.4,25.3 h -6.3 l -6.4,-25.3 v 25.3 z"
   id="path13" />
	<path
   d="m 906.7,619.5 v -32.2 h 23.9 v 5.4 h -17.4 v 7.1 h 16.2 v 5.4 h -16.2 v 8.8 h 18 v 5.4 h -24.5 z"
   id="path14" />
	<path
   d="m 969.8,607.6 6.3,2 c -1,3.5 -2.6,6.1 -4.8,7.8 -2.2,1.7 -5.1,2.6 -8.5,2.6 -4.3,0 -7.8,-1.5 -10.5,-4.4 -2.8,-2.9 -4.1,-6.9 -4.1,-12 0,-5.4 1.4,-9.5 4.1,-12.5 2.8,-3 6.4,-4.4 10.9,-4.4 3.9,0 7.1,1.2 9.6,3.5 1.5,1.4 2.6,3.4 3.3,5.9 l -6.4,1.5 c -0.4,-1.7 -1.2,-3 -2.4,-4 -1.2,-1 -2.7,-1.4 -4.4,-1.4 -2.4,0 -4.3,0.9 -5.8,2.6 -1.5,1.7 -2.2,4.5 -2.2,8.3 0,4.1 0.7,7 2.2,8.7 1.5,1.7 3.4,2.6 5.7,2.6 1.7,0 3.2,-0.5 4.5,-1.6 1,-1.1 1.9,-2.8 2.5,-5.2 z"
   id="path15" />
	<path
   d="m 1010.7,619.5 h -7.1 l -2.8,-7.3 h -12.9 l -2.7,7.3 h -6.9 l 12.5,-32.2 h 6.9 z m -12,-12.8 -4.4,-11.9 -4.3,11.9 z"
   id="path16" />
	<path
   d="m 1018,619.5 v -26.7 h -9.5 v -5.4 h 25.6 v 5.4 h -9.5 v 26.7 z"
   id="path17" />
	<path
   d="m 1063.9,619.5 h -7.1 l -2.8,-7.3 h -12.9 l -2.7,7.3 h -6.9 l 12.5,-32.2 h 6.9 z m -11.9,-12.8 -4.4,-11.9 -4.3,11.9 z"
   id="path18" />
	<path
   d="m 1067.5,619.5 v -31.9 h 6.5 v 26.5 h 16.2 v 5.4 z"
   id="path19" />
	<path
   d="m 1093.5,603.6 c 0,-3.3 0.5,-6 1.5,-8.3 0.7,-1.6 1.7,-3.1 3,-4.4 1.3,-1.3 2.7,-2.3 4.2,-2.9 2,-0.8 4.3,-1.3 6.9,-1.3 4.7,0 8.5,1.5 11.4,4.4 2.8,2.9 4.3,7 4.3,12.3 0,5.2 -1.4,9.3 -4.2,12.2 -2.8,2.9 -6.6,4.4 -11.3,4.4 -4.8,0 -8.6,-1.5 -11.4,-4.4 -3,-2.9 -4.4,-6.9 -4.4,-12 z m 6.7,-0.2 c 0,3.6 0.8,6.4 2.5,8.3 1.7,1.9 3.8,2.8 6.4,2.8 2.6,0 4.7,-0.9 6.4,-2.8 1.7,-1.9 2.5,-4.7 2.5,-8.4 0,-3.7 -0.8,-6.4 -2.4,-8.3 -1.6,-1.8 -3.8,-2.7 -6.4,-2.7 -2.6,0 -4.8,0.9 -6.5,2.8 -1.7,1.9 -2.5,4.6 -2.5,8.3 z"
   id="path20" />
	<path
   d="m 1144.8,607.6 v -5.4 h 14 V 615 c -1.4,1.3 -3.3,2.5 -5.9,3.5 -2.6,1 -5.2,1.5 -7.8,1.5 -3.4,0 -6.3,-0.7 -8.8,-2.1 -2.5,-1.4 -4.4,-3.4 -5.6,-6.1 -1.2,-2.7 -1.9,-5.5 -1.9,-8.6 0,-3.4 0.7,-6.3 2.1,-8.9 1.4,-2.6 3.5,-4.6 6.2,-6 2.1,-1.1 4.6,-1.6 7.7,-1.6 4,0 7.1,0.8 9.4,2.5 2.3,1.7 3.7,4 4.3,6.9 l -6.5,1.2 c -0.5,-1.6 -1.3,-2.8 -2.6,-3.7 -1.3,-0.9 -2.8,-1.4 -4.7,-1.4 -2.8,0 -5.1,0.9 -6.8,2.7 -1.7,1.8 -2.5,4.5 -2.5,8 0,3.8 0.8,6.7 2.5,8.6 1.7,1.9 3.9,2.9 6.7,2.9 1.4,0 2.7,-0.3 4.1,-0.8 1.4,-0.5 2.5,-1.2 3.5,-1.9 v -4.1 z"
   id="path21" />
	<path
   d="m 1164.7,587.3 h 6.5 v 17.4 c 0,2.8 0.1,4.6 0.2,5.4 0.3,1.3 0.9,2.4 2,3.2 1,0.8 2.5,1.2 4.3,1.2 1.8,0 3.2,-0.4 4.2,-1.1 0.9,-0.8 1.5,-1.7 1.7,-2.8 0.2,-1.1 0.3,-2.9 0.3,-5.5 v -17.8 h 6.5 v 16.9 c 0,3.9 -0.2,6.6 -0.5,8.2 -0.4,1.6 -1,2.9 -1.9,4 -0.9,1.1 -2.2,2 -3.8,2.6 -1.6,0.7 -3.6,1 -6.2,1 -3.1,0 -5.4,-0.4 -7,-1.1 -1.6,-0.7 -2.8,-1.6 -3.8,-2.8 -0.9,-1.1 -1.5,-2.3 -1.8,-3.6 -0.4,-1.8 -0.6,-4.6 -0.6,-8.2 v -17 z"
   id="path22" />
	<path
   d="m 1197.2,619.5 v -32.2 h 23.9 v 5.4 h -17.4 v 7.1 h 16.2 v 5.4 h -16.2 v 8.8 h 18 v 5.4 h -24.5 z"
   id="path23" />
</g>
</svg>
