<?xml version="1.0" encoding="utf-8"?>
<!-- Generator: Adobe Illustrator 26.3.1, SVG Export Plug-In . SVG Version: 6.00 Build 0)  -->
<svg version="1.1" id="Vrstva_1" xmlns="http://www.w3.org/2000/svg" xmlns:xlink="http://www.w3.org/1999/xlink" x="0px" y="0px"
	 viewBox="0 0 1920 1080" style="enable-background:new 0 0 1920 1080;" xml:space="preserve">
<style type="text/css">
	.st0{stroke:#000000;stroke-miterlimit:10;}
	.st1{enable-background:new    ;}
	.st2{fill:#294899;}
</style>
<g>
	<path class="st0" d="M1099.8,333.3c12.6,4.1,26.3,7.7,40.6,8.6c8.2,0.5,16.3-0.6,24.1-3.4c2.8-1,5.5-2.5,8-4.3
		c16.4-12,28.8-27.4,38.2-45.3c3.7-7.1,6.7-14.4,8.9-22.1c0.2-0.6,0.3-1.3,0.5-2c-0.4,0.1-0.6,0-0.7,0.1c-8.1,4.5-16.8,4.4-25.6,3.4
		c-12.2-1.4-24.3-3-36.5-4.1c-18-1.7-33.3,4.9-47.3,15.6c-2.2,1.7-4.5,3.5-6.8,5.1c5.1-6.5,11.8-11.6,17.2-18
		c-2.5,1.4-4.9,2.8-7.4,4c-6.4,3.1-13.1,5.2-20.2,5.6c-15.4,0.9-28.8,6.8-41,15.8c-5.2,3.8-10.2,8-15.3,12
		c4.5-7.5,10.9-13.1,18.2-18c-0.1-0.2-0.2-0.4-0.2-0.6c-3.2,0.3-6.4,0.5-9.6,0.9c-28.5,3.5-49.5,18.9-65.5,41.7
		c-5.1,7.2-9.1,15.1-13.7,22.6c-4,6.6-8.5,13-14.4,18.1c-3,2.6-6.4,4.8-9.8,6.6c-16.3,8.7-32.9,16.9-48.3,27.2
		c-3.7,2.5-7.3,5.1-10.9,7.7c-0.8,0.5-1.7,1.2-2,2c-0.3,1.1-0.4,2.5,0,3.5c0.5,1.3,1.9,1.5,3.1,1c1.2-0.5,2.3-1.1,3.4-1.8
		c14.6-11.1,30.6-20.1,46.8-28.6c4.4-2.3,8.9-4.5,13.4-6.8c3.3-1.7,6.7-1.9,10.4-1.4c9.8,1.5,19.1,4.9,28,9.2
		c20.8,9.9,42.3,13.2,64.8,7.2c0.7-0.2,1.4-0.4,2.1-0.6c-3.5-1.3-7-2.5-10.4-4c-3.3-1.4-6.4-3.2-9.6-4.8c0.1-0.2,0.2-0.4,0.3-0.6
		c4.2,0.8,8.4,1.6,12.6,2.5c27.2,5.7,52.7,2.3,76.4-12.8c1.1-0.7,2.2-1.4,3.3-2.4c-8.5,1.6-16.9,1.2-25-1.9c1.3,0.1,2.5,0.3,3.8,0.4
		c13.7,1.3,26.2-2.6,37.9-9.3c8.4-4.8,16.1-10.7,23.4-17c2.7-2.3,5.4-4.5,8.5-7.1c-3.3,1.3-6.1,2.6-9,3.6c-9.5,3.3-19.3,4-29.1,2.5
		c-9.5-1.5-19-3.3-28.4-5c4.1,1.2,8.3,2.6,12.5,3.8c4.3,1.1,8.6,2.2,13,3c4.4,0.7,9,1.3,13.4,1.3c4.4,0,8.8-0.7,13.7-1.1
		c-2.8,2.2-5.3,4.2-7.9,6.1c-6.7,4.9-13.7,9.3-21.4,12.6c-10,4.3-20.3,4.8-30.8,3c-8.3-1.4-16.6-3.1-24.7-5.4
		c-5.5-1.5-10.6-4.2-15.9-6.3c-0.4-0.2-0.8-0.3-1.3-0.4c12.7,7.6,25.8,14.1,39.9,18.7c-15.5-3.1-29.6-9.8-43.5-17.2
		c6.1,3.5,12.1,7,18.3,10.4c6.2,3.4,12.8,5.9,19.8,7.4c6.9,1.5,13.9,2.2,21,1.5c0,0.2,0.1,0.3,0.1,0.5c-2.8,1.3-5.6,2.6-8.4,3.8
		c-15.1,6.6-31,7.9-47.2,6.1c-15.9-1.7-31.2-5.8-45.9-11.9c-3.7-1.5-7.2-3.4-10.8-5.1c-0.6-0.3-1.2-0.6-1.8-0.7
		c12.5,10.8,26.5,18.9,42.1,24.9c-0.7,0.2-1.4,0.4-2,0.5c-10.4,1.9-20.8,1.5-31.1-1.2c-8.2-2.2-16-5.4-23.6-9.1
		c-8.2-3.9-16.8-6.8-25.8-7.8c-0.6-0.1-1.2-0.3-1.7-0.4c0-0.2-0.1-0.4-0.1-0.6c2-0.4,4-1.2,5.9-1.1c6.1,0.4,12.3,0.7,18.3,1.9
		c6.2,1.2,12.3,3.2,18.5,4.6c-5.6-1.9-11.2-4.1-16.9-5.6c-5.7-1.5-11.6-2.2-17.4-3.3c0.2-0.1,0.6-0.3,1-0.5
		c26.6-10.2,54-17.8,81.4-25.3c20.8-5.7,41.6-11.8,62.1-18.4c17.8-5.8,34.7-13.9,50.8-23.5c0.3-0.2,0.6-0.4,0.7-0.7
		c-3.7,2-7.4,4-11.1,5.9c-21.4,11.1-44,18.8-67.3,24.8c-26.8,6.9-53.7,13.3-80.5,20.3c-15.6,4-30.6,9.7-45.4,16
		c-0.7,0.3-1.3,0.6-2.5,1.1c0.7-1,1-1.5,1.4-1.9c8.3-8.9,14.6-19.1,20.6-29.6c8.7-15.1,20-27.9,34.7-37.5
		c10.3-6.8,21.6-11.1,33.8-12.7c0.3,0,0.6,0,1.2,0.1c-16.4,14-24.5,32.7-30.7,52.6c5.7-12.2,12.5-23.7,22-33.4
		c0.6-0.6,1.2-1.2,1.9-1.7c-6.3,9-12.1,18.2-16.5,28c3.9-6.1,7.7-12.4,12-18.4c6.3-8.9,13.3-17.1,22.2-23.6
		c10-7.4,21.2-11.9,33.7-13.2c4.7-0.5,9.3-1.4,14.2-2.1c-12.7,15.1-23.4,31.3-31.2,49.4c8.6-14.7,19-28,31.5-39.7
		c-8.4,10.6-16.6,21.3-23.2,33.4c3.4-4.6,6.4-9.2,9.9-13.4c7.1-8.3,14.3-16.4,21.7-24.4c10.3-11.1,23.4-15.6,38.3-15.8
		c9.7-0.1,19.4,1.1,29,2.4c6.1,0.8,12.3,1.7,18.5,2.3c5.7,0.6,11.3-0.1,17.2-2.6c-0.6,1.5-0.9,2.6-1.3,3.6
		c-7.9,20.3-19.6,38.1-35.8,52.9c-3.5,3.2-7.4,5.9-11.3,8.6c-5.2,3.6-11.5,4.2-17.6,5c-11.1,1.4-22.2,0.5-33.2-1.7
		C1111.1,336,1105,334.5,1099.8,333.3z"/>
	<path class="st0" d="M975.7,360.7c11.3-13.3,24.2-24.9,38.2-35.3C1003.1,330,977.9,353.2,975.7,360.7z"/>
</g>
<g class="st1">
	<path class="st2" d="M527,564.8V401.1h33.1v163.7H527z"/>
	<path class="st2" d="M699.2,564.8h-31.4v-60.5c0-12.8-0.7-21.1-2-24.8c-1.3-3.8-3.5-6.7-6.5-8.8c-3-2.1-6.6-3.1-10.9-3.1
		c-5.4,0-10.3,1.5-14.6,4.5c-4.3,3-7.3,6.9-8.9,11.8c-1.6,4.9-2.4,14-2.4,27.2v53.7h-31.4V446.2h29.1v17.4
		c10.3-13.4,23.4-20.1,39.1-20.1c6.9,0,13.2,1.2,19,3.7c5.7,2.5,10.1,5.7,13,9.5c2.9,3.9,5,8.3,6.1,13.2c1.2,4.9,1.7,11.9,1.7,21.1
		V564.8z"/>
	<path class="st2" d="M839.8,564.8h-29.1v-17.4c-4.8,6.8-10.6,11.8-17.1,15.1s-13.2,5-19.9,5c-13.6,0-25.3-5.5-35-16.5
		c-9.7-11-14.6-26.3-14.6-46c0-20.1,4.7-35.4,14.2-45.8c9.5-10.5,21.4-15.7,35.8-15.7c13.2,0,24.7,5.5,34.4,16.5v-59h31.4V564.8z
		 M756,503c0,12.7,1.7,21.8,5.2,27.5c5.1,8.2,12.1,12.3,21.2,12.3c7.2,0,13.4-3.1,18.4-9.2c5.1-6.1,7.6-15.3,7.6-27.5
		c0-13.6-2.5-23.4-7.4-29.4c-4.9-6-11.2-9-18.9-9c-7.4,0-13.7,3-18.7,8.9S756,491.2,756,503z"/>
	<path class="st2" d="M908.2,453.5v111.3h-41.8V453.5H908.2z M887.5,403.8c5.7,0,10.6,2,14.7,6c4.1,4,6.2,8.7,6.2,14.1
		c0,5.8-2,10.6-5.9,14.3c-3.9,3.7-8.9,5.6-15,5.6c-6.1,0-11.1-1.9-15-5.6c-3.9-3.7-5.9-8.5-5.9-14.3c0-5.4,2.1-10.1,6.2-14.1
		C876.9,405.8,881.8,403.8,887.5,403.8z"/>
	<path class="st2" d="M1005.7,527.1l31.3,5.2c-4,11.5-10.4,20.2-19,26.2c-8.7,6-19.5,9-32.6,9c-20.6,0-35.9-6.7-45.8-20.2
		c-7.8-10.8-11.7-24.4-11.7-40.9c0-19.7,5.1-35,15.4-46.2c10.3-11.1,23.3-16.7,39-16.7c17.6,0,31.6,5.8,41.8,17.5
		c10.2,11.7,15.1,29.5,14.6,53.5H960c0.2,9.3,2.8,16.5,7.6,21.7c4.8,5.2,10.9,7.8,18.1,7.8c4.9,0,9-1.3,12.4-4
		C1001.5,537.4,1004,533.1,1005.7,527.1z M1007.5,495.4c-0.2-9.1-2.6-16-7-20.7c-4.5-4.7-9.9-7.1-16.3-7.1c-6.9,0-12.5,2.5-17,7.5
		c-4.5,5-6.7,11.8-6.6,20.3H1007.5z"/>
	<path class="st2" d="M1064.6,564.8V401.1h33.1v64.4h64.8v-64.4h33.1v163.7h-33.1v-71.6h-64.8v71.6H1064.6z"/>
	<path class="st2" d="M1307.4,564.8v-17.8c-4.3,6.3-10,11.3-17,15s-14.5,5.5-22.3,5.5c-8,0-15.1-1.8-21.4-5.2
		c-6.3-3.5-10.9-8.4-13.7-14.7c-2.8-6.3-4.2-15.1-4.2-26.2v-75h31.4v54.5c0,16.7,0.6,26.9,1.7,30.7c1.2,3.8,3.3,6.7,6.3,8.9
		c3.1,2.2,6.9,3.3,11.6,3.3c5.4,0,10.2-1.5,14.4-4.4c4.2-2.9,7.1-6.6,8.7-10.9s2.3-15,2.3-32v-50h31.4v118.6H1307.4z"/>
	<path class="st2" d="M1367.7,564.8V401.1h31.4v59c9.7-11,21.1-16.5,34.4-16.5c14.4,0,26.4,5.2,35.8,15.7
		c9.5,10.5,14.2,25.5,14.2,45.1c0,20.2-4.8,35.8-14.5,46.8c-9.6,10.9-21.3,16.4-35.1,16.4c-6.8,0-13.5-1.7-20-5.1
		c-6.6-3.4-12.3-8.4-17-15v17.4H1367.7z M1398.9,503c0,12.3,1.9,21.4,5.8,27.2c5.4,8.3,12.7,12.5,21.7,12.5c6.9,0,12.8-3,17.7-8.9
		c4.9-5.9,7.3-15.2,7.3-28c0-13.5-2.5-23.3-7.4-29.3c-4.9-6-11.2-9-18.9-9c-7.5,0-13.8,2.9-18.8,8.8
		C1401.4,482.2,1398.9,491.1,1398.9,503z"/>
</g>
<g>
	<path d="M816.8,607.6v-5.4h14V615c-1.4,1.3-3.3,2.5-5.9,3.5c-2.6,1-5.2,1.5-7.8,1.5c-3.4,0-6.3-0.7-8.8-2.1
		c-2.5-1.4-4.4-3.4-5.6-6.1s-1.9-5.5-1.9-8.6c0-3.4,0.7-6.3,2.1-8.9c1.4-2.6,3.5-4.6,6.2-6c2.1-1.1,4.6-1.6,7.7-1.6
		c4,0,7.1,0.8,9.4,2.5s3.7,4,4.3,6.9l-6.5,1.2c-0.5-1.6-1.3-2.8-2.6-3.7c-1.3-0.9-2.8-1.4-4.7-1.4c-2.8,0-5.1,0.9-6.8,2.7
		c-1.7,1.8-2.5,4.5-2.5,8c0,3.8,0.8,6.7,2.5,8.6c1.7,1.9,3.9,2.9,6.7,2.9c1.4,0,2.7-0.3,4.1-0.8c1.4-0.5,2.5-1.2,3.5-1.9v-4.1H816.8
		z"/>
	<path d="M865.8,619.5h-7.1l-2.8-7.3h-12.9l-2.7,7.3h-6.9l12.5-32.2h6.9L865.8,619.5z M853.8,606.7l-4.4-11.9l-4.3,11.9H853.8z"/>
	<path d="M869.2,619.5v-32.2h9.7l5.8,22l5.8-22h9.7v32.2h-6v-25.3l-6.4,25.3h-6.3l-6.4-25.3v25.3H869.2z"/>
	<path d="M906.7,619.5v-32.2h23.9v5.4h-17.4v7.1h16.2v5.4h-16.2v8.8h18v5.4H906.7z"/>
	<path d="M969.8,607.6l6.3,2c-1,3.5-2.6,6.1-4.8,7.8c-2.2,1.7-5.1,2.6-8.5,2.6c-4.3,0-7.8-1.5-10.5-4.4c-2.8-2.9-4.1-6.9-4.1-12
		c0-5.4,1.4-9.5,4.1-12.5c2.8-3,6.4-4.4,10.9-4.4c3.9,0,7.1,1.2,9.6,3.5c1.5,1.4,2.6,3.4,3.3,5.9l-6.4,1.5c-0.4-1.7-1.2-3-2.4-4
		c-1.2-1-2.7-1.4-4.4-1.4c-2.4,0-4.3,0.9-5.8,2.6c-1.5,1.7-2.2,4.5-2.2,8.3c0,4.1,0.7,7,2.2,8.7c1.5,1.7,3.4,2.6,5.7,2.6
		c1.7,0,3.2-0.5,4.5-1.6C968.3,611.7,969.2,610,969.8,607.6z"/>
	<path d="M1010.7,619.5h-7.1l-2.8-7.3h-12.9l-2.7,7.3h-6.9l12.5-32.2h6.9L1010.7,619.5z M998.7,606.7l-4.4-11.9l-4.3,11.9H998.7z"/>
	<path d="M1018,619.5v-26.7h-9.5v-5.4h25.6v5.4h-9.5v26.7H1018z"/>
	<path d="M1063.9,619.5h-7.1l-2.8-7.3h-12.9l-2.7,7.3h-6.9l12.5-32.2h6.9L1063.9,619.5z M1052,606.7l-4.4-11.9l-4.3,11.9H1052z"/>
	<path d="M1067.5,619.5v-31.9h6.5v26.5h16.2v5.4H1067.5z"/>
	<path d="M1093.5,603.6c0-3.3,0.5-6,1.5-8.3c0.7-1.6,1.7-3.1,3-4.4s2.7-2.3,4.2-2.9c2-0.8,4.3-1.3,6.9-1.3c4.7,0,8.5,1.5,11.4,4.4
		c2.8,2.9,4.3,7,4.3,12.3c0,5.2-1.4,9.3-4.2,12.2c-2.8,2.9-6.6,4.4-11.3,4.4c-4.8,0-8.6-1.5-11.4-4.4
		C1094.9,612.7,1093.5,608.7,1093.5,603.6z M1100.2,603.4c0,3.6,0.8,6.4,2.5,8.3c1.7,1.9,3.8,2.8,6.4,2.8c2.6,0,4.7-0.9,6.4-2.8
		s2.5-4.7,2.5-8.4c0-3.7-0.8-6.4-2.4-8.3c-1.6-1.8-3.8-2.7-6.4-2.7s-4.8,0.9-6.5,2.8S1100.2,599.7,1100.2,603.4z"/>
	<path d="M1144.8,607.6v-5.4h14V615c-1.4,1.3-3.3,2.5-5.9,3.5c-2.6,1-5.2,1.5-7.8,1.5c-3.4,0-6.3-0.7-8.8-2.1
		c-2.5-1.4-4.4-3.4-5.6-6.1s-1.9-5.5-1.9-8.6c0-3.4,0.7-6.3,2.1-8.9c1.4-2.6,3.5-4.6,6.2-6c2.1-1.1,4.6-1.6,7.7-1.6
		c4,0,7.1,0.8,9.4,2.5s3.7,4,4.3,6.9l-6.5,1.2c-0.5-1.6-1.3-2.8-2.6-3.7c-1.3-0.9-2.8-1.4-4.7-1.4c-2.8,0-5.1,0.9-6.8,2.7
		c-1.7,1.8-2.5,4.5-2.5,8c0,3.8,0.8,6.7,2.5,8.6c1.7,1.9,3.9,2.9,6.7,2.9c1.4,0,2.7-0.3,4.1-0.8c1.4-0.5,2.5-1.2,3.5-1.9v-4.1
		H1144.8z"/>
	<path d="M1164.7,587.3h6.5v17.4c0,2.8,0.1,4.6,0.2,5.4c0.3,1.3,0.9,2.4,2,3.2c1,0.8,2.5,1.2,4.3,1.2c1.8,0,3.2-0.4,4.2-1.1
		c0.9-0.8,1.5-1.7,1.7-2.8c0.2-1.1,0.3-2.9,0.3-5.5v-17.8h6.5v16.9c0,3.9-0.2,6.6-0.5,8.2c-0.4,1.6-1,2.9-1.9,4
		c-0.9,1.1-2.2,2-3.8,2.6c-1.6,0.7-3.6,1-6.2,1c-3.1,0-5.4-0.4-7-1.1c-1.6-0.7-2.8-1.6-3.8-2.8c-0.9-1.1-1.5-2.3-1.8-3.6
		c-0.4-1.8-0.6-4.6-0.6-8.2V587.3z"/>
	<path d="M1197.2,619.5v-32.2h23.9v5.4h-17.4v7.1h16.2v5.4h-16.2v8.8h18v5.4H1197.2z"/>
</g>
</svg>
